HIERARCHY
ROOT root
{
	OFFSET 0.000000 0.000000 0.000000
	CHANNELS 6 Xposition Yposition Zposition Zrotation Yrotation Xrotation
	JOINT lhip
	{
		OFFSET 0.058581 -0.082280 -0.017664
		CHANNELS 3 Zrotation Yrotation Xrotation
		JOINT lknee
		{
			OFFSET 0.043451 -0.386469 0.008037
			CHANNELS 3 Zrotation Yrotation Xrotation
			JOINT lankle
			{
				OFFSET -0.014790 -0.426874 -0.037428
				CHANNELS 3 Zrotation Yrotation Xrotation
				JOINT ltoe
				{
					OFFSET 0.041054 -0.060286 0.122042
					CHANNELS 3 Zrotation Yrotation Xrotation
					End Site
					{
						OFFSET 0.000000 0.000000 0.000000
					}
				}
			}
		}
	}
	JOINT rhip
	{
		OFFSET -0.060310 -0.090513 -0.013543
		CHANNELS 3 Zrotation Yrotation Xrotation
		JOINT rknee
		{
			OFFSET -0.043257 -0.383688 -0.004843
			CHANNELS 3 Zrotation Yrotation Xrotation
			JOINT rankle
			{
				OFFSET 0.019056 -0.420046 -0.034562
				CHANNELS 3 Zrotation Yrotation Xrotation
				JOINT rtoe
				{
					OFFSET -0.034840 -0.062106 0.130323
					CHANNELS 3 Zrotation Yrotation Xrotation
					End Site
					{
						OFFSET 0.000000 0.000000 0.000000
					}
				}
			}
		}
	}
	JOINT lowerback
	{
		OFFSET 0.004439 0.124404 -0.038385
		CHANNELS 3 Zrotation Yrotation Xrotation
		JOINT upperback
		{
			OFFSET 0.004488 0.137956 0.026820
			CHANNELS 3 Zrotation Yrotation Xrotation
			JOINT chest
			{
				OFFSET -0.002265 0.056032 0.002855
				CHANNELS 3 Zrotation Yrotation Xrotation
				JOINT lowerneck
				{
					OFFSET -0.013390 0.211636 -0.033468
					CHANNELS 3 Zrotation Yrotation Xrotation
					JOINT upperneck
					{
						OFFSET 0.010113 0.088937 0.050410
						CHANNELS 3 Zrotation Yrotation Xrotation
						End Site
						{
							OFFSET 0.000000 0.000000 0.000000
						}
					}
				}
				JOINT lclavicle
				{
					OFFSET 0.071702 0.114000 -0.018898
					CHANNELS 3 Zrotation Yrotation Xrotation
					JOINT lshoulder
					{
						OFFSET 0.122921 0.045205 -0.019046
						CHANNELS 3 Zrotation Yrotation Xrotation
						JOINT lelbow
						{
							OFFSET 0.255332 -0.015649 -0.022946
							CHANNELS 3 Zrotation Yrotation Xrotation
							JOINT lwrist
							{
								OFFSET 0.265709 0.012698 -0.007375
								CHANNELS 3 Zrotation Yrotation Xrotation
								End Site
								{
									OFFSET 0.000000 0.000000 0.000000
								}
							}
						}
					}
				}
				JOINT rclavicle
				{
					OFFSET -0.082954 0.112472 -0.023707
					CHANNELS 3 Zrotation Yrotation Xrotation
					JOINT rshoulder
					{
						OFFSET -0.113228 0.046853 -0.008472
						CHANNELS 3 Zrotation Yrotation Xrotation
						JOINT relbow
						{
							OFFSET -0.260127 -0.014369 -0.031269
							CHANNELS 3 Zrotation Yrotation Xrotation
							JOINT rwrist
							{
								OFFSET -0.269108 0.006794 -0.006027
								CHANNELS 3 Zrotation Yrotation Xrotation
								End Site
								{
									OFFSET 0.000000 0.000000 0.000000
								}
							}
						}
					}
				}
			}
		}
	}
}
MOTION
Frames: 11
Frame Time: 0.033333
-2.502689 0.153865 0.983256 85.829192 -0.295050 82.776514 4.060945 -0.244660 -15.202557 -4.267286 11.575971 29.068119 0.727048 12.896148 -15.036766 0.000000 -0.000000 0.000000 -2.085510 -4.822134 13.264083 5.484698 4.366457 9.920782 -0.134299 0.634497 -22.125736 0.000000 -0.000000 0.000000 2.909630 6.447454 9.812934 2.138307 -1.283550 2.222952 -1.010471 0.622875 1.398036 2.511329 4.668013 -7.217420 -6.366727 -2.644240 5.638470 -30.773261 7.268363 1.632223 -56.311684 7.083147 10.498645 4.395741 -35.626565 25.550916 -18.125266 -6.676356 0.471018 30.307266 -0.229466 2.012860 52.030604 12.683062 10.863956 -19.378454 40.326316 -2.248760 8.227049 6.749959 -1.112678 
-2.456752 0.156098 0.975394 84.248487 0.131434 82.782028 5.303990 1.159782 -16.385145 -4.228456 12.367886 17.585606 0.097530 11.454335 -14.118958 0.000000 -0.000000 0.000000 -4.214267 -5.942278 18.056266 6.862512 5.596051 7.882814 0.171206 3.133886 -22.306719 0.000000 -0.000000 0.000000 3.333787 7.257046 8.288750 2.085076 -1.451279 4.922231 -1.202070 1.733312 0.914684 2.995208 5.483259 -7.207453 -6.854317 -3.434925 5.259736 -31.089864 8.211759 1.243285 -56.722037 10.297088 10.303259 4.779686 -34.392748 27.308437 -19.760775 -4.847169 2.770545 29.521971 1.416570 1.740324 51.185910 16.080069 10.785623 -20.479811 43.509205 -3.660688 8.214059 6.769511 -3.168746 
-2.409664 0.158927 0.964753 82.783530 0.560167 82.637312 6.014044 3.592729 -16.800957 -4.782707 11.106649 6.145096 -0.501419 9.665961 -13.083258 0.000000 -0.000000 0.000000 -6.252049 -6.685016 22.093986 7.726879 7.546030 7.361628 0.748530 5.057252 -22.648677 0.000000 -0.000000 0.000000 3.892805 7.719019 7.741130 1.793918 -1.303663 6.325606 -1.149496 2.137680 0.786009 2.898829 6.057661 -7.647648 -7.394912 -3.182780 5.045056 -31.763903 9.212187 2.766242 -56.976748 12.477323 9.439329 5.375862 -33.038561 26.877928 -18.837356 -4.783473 3.167947 29.083529 3.376759 1.858994 49.404526 19.251938 10.187158 -21.163897 46.214255 -5.157120 6.172893 7.175015 -3.493298 
-2.349546 0.162771 0.950929 80.379512 0.865444 83.831823 6.703106 7.515179 -18.641709 -6.844853 7.270769 -3.175345 -1.882136 7.325302 -11.749530 0.000000 -0.000000 0.000000 -8.243708 -6.867037 23.785965 7.445834 10.180058 9.884654 1.366332 6.888783 -23.327191 0.000000 -0.000000 0.000000 3.431532 8.024584 6.615196 1.743409 0.225398 6.334717 -1.135015 3.771301 -0.099236 3.539156 6.042954 -6.560403 -7.751127 -3.499184 4.849388 -32.396110 12.203475 0.827886 -55.691381 17.202576 8.556347 5.087229 -32.560880 27.044419 -18.679953 -3.280861 3.188543 29.414905 2.867125 1.464039 47.368066 21.477381 9.646337 -21.107780 49.421785 -5.041904 6.217869 7.876054 -2.773391 
-2.312508 0.165904 0.943588 79.724124 0.788866 84.593071 7.188523 6.535327 -20.030790 -7.485655 7.051943 -4.345018 -2.103024 6.384440 -11.899727 0.000000 -0.000000 0.000000 -9.309663 -6.454179 24.385581 7.387801 11.421666 11.944414 2.367473 7.367862 -22.340523 0.000000 -0.000000 0.000000 2.977261 8.711538 5.691085 1.761175 0.450356 6.358587 -1.277531 3.848360 -0.074511 3.669445 6.077302 -6.583129 -7.615550 -3.279881 4.596278 -32.615572 13.247991 1.023716 -56.039318 18.606316 7.861096 6.777534 -31.730410 25.138490 -17.041677 -3.672267 2.558594 29.791560 2.875383 1.240522 46.486307 22.589082 9.546612 -21.505974 49.902618 -6.044475 4.907924 8.287010 -3.245608 
-2.258485 0.169960 0.936230 79.355947 0.504072 84.827279 7.176707 4.049365 -21.303884 -7.198662 8.235542 0.306391 -1.471681 7.133340 -14.222123 0.000000 -0.000000 0.000000 -9.786579 -5.047269 25.388823 6.616442 12.807879 15.657294 3.259852 6.994633 -20.150657 0.000000 -0.000000 0.000000 1.940550 9.633237 5.345589 1.806767 0.478932 6.025497 -1.265947 3.831532 0.073505 4.031364 5.731329 -7.334266 -7.443989 -3.233794 4.560831 -32.238335 14.277515 1.055702 -56.472216 20.226513 7.127341 7.838353 -30.444299 23.248494 -14.691539 -3.980307 1.147417 29.885231 2.213895 0.761332 46.903313 22.294187 10.342407 -23.886371 51.251668 -8.008504 3.779990 7.232184 -3.911676 
-2.201998 0.174995 0.931303 79.743778 0.065324 86.056887 6.511871 1.291175 -23.501310 -6.275566 11.976314 7.110435 -0.356845 8.268565 -9.427555 0.000000 -0.000000 0.000000 -9.058678 -3.411625 23.725237 5.856940 12.825694 21.844252 4.158860 5.753065 -14.542066 0.000000 -0.000000 0.000000 -0.096556 10.404867 3.317793 2.396766 0.561375 5.725784 -1.096930 3.341679 -0.036278 4.214287 4.488339 -7.165577 -6.555068 -2.504533 4.077056 -32.126536 15.238767 1.745663 -56.560093 21.042147 6.825010 9.145535 -29.644330 21.186014 -15.046250 -3.736509 -0.253384 30.320435 0.869847 0.909863 46.964772 20.344395 11.543066 -26.100582 52.457406 -9.549073 4.186541 7.761321 -4.178902 
-2.147313 0.181874 0.930234 82.381993 -1.076391 86.656951 5.291586 -2.291439 -25.345840 -6.520987 10.554913 14.024860 1.002094 9.105393 -5.467796 0.000000 -0.000000 0.000000 -8.263531 -2.475667 21.039959 5.064730 9.896524 30.431461 5.216659 2.843571 -3.039843 0.000000 -0.000000 0.000000 -2.566378 10.197833 2.586590 2.560826 -0.275243 5.143037 -1.177141 2.481461 0.059293 4.564830 3.326765 -8.152483 -5.075911 -1.780696 4.779763 -31.671055 15.181737 3.021097 -56.801205 20.496177 6.625085 10.524367 -29.376551 19.160521 -15.721031 -3.919878 -1.933283 31.270513 -0.236161 0.601570 47.843449 17.665463 12.960036 -29.178652 52.507426 -12.142455 6.341694 8.669553 -3.879234 
-2.093479 0.187399 0.934130 84.348638 -2.609271 85.896056 3.332829 -5.478505 -24.767223 -7.359428 10.121344 20.605317 4.640016 10.241807 -9.329890 0.000000 -0.000000 0.000000 -8.170894 -1.294471 17.739935 4.286111 6.799355 40.844338 7.084808 -0.796481 8.477919 0.000000 -0.000000 0.000000 -5.077520 10.041459 3.296160 2.437633 -0.582255 4.794043 -1.100078 1.562922 0.485675 5.023701 1.635484 -8.491717 -4.085793 -1.440099 3.937731 -31.429530 14.572245 3.944653 -57.000396 18.962430 6.186414 12.354251 -29.547706 17.078421 -16.976964 -4.489055 -4.198137 31.941601 -1.468422 0.396458 49.909955 14.788757 14.084234 -31.309536 51.441474 -14.862153 8.515464 8.276740 -4.641418 
-2.031120 0.194410 0.941676 86.081712 -3.835378 85.108069 -0.207302 -6.068141 -20.512975 -7.664581 7.959281 22.156382 7.168290 11.563371 -13.158209 0.000000 -0.000000 0.000000 -8.208449 -0.980105 11.107704 3.139478 3.561171 53.680681 5.768923 -7.349499 15.711749 0.000000 -0.000000 0.000000 -6.687133 8.136760 5.015021 1.683979 -0.490453 4.275097 -1.126637 1.291296 0.197262 4.597954 0.169897 -8.535189 -2.162228 0.195907 3.903547 -31.063944 13.052672 4.682794 -58.711969 16.227979 0.752178 15.178467 -30.091608 12.247070 -20.461443 -3.253354 -3.658528 31.898828 -1.951975 1.020026 53.419886 9.671598 13.194877 -30.772245 50.354122 -16.355438 11.055892 5.992134 -3.027555 
-1.984666 0.197672 0.951813 87.145864 -3.197180 84.538678 -1.669438 -5.007705 -15.708923 -7.172633 5.036048 20.671825 7.102444 11.389507 -15.444850 0.000000 -0.000000 0.000000 -5.955374 -0.332252 5.379137 2.210064 1.559946 60.530573 3.576570 -9.973883 6.517801 0.000000 -0.000000 0.000000 -6.183102 6.228640 7.183679 1.404727 -0.036725 2.347861 -0.975071 0.716767 0.557777 4.364188 0.417850 -8.209979 -1.879446 0.508200 3.946334 -31.253028 12.346139 3.922157 -59.143997 13.664304 0.459848 17.038757 -30.051967 10.178673 -18.652209 -4.033245 -4.720195 32.170328 -2.811183 0.760383 55.058829 5.776164 13.022298 -27.718326 48.407194 -12.307054 11.551981 6.381653 -2.365127 
